<svg width="304" height="222" viewBox="0 0 304 222" fill="none" xmlns="http://www.w3.org/2000/svg">
<path d="M9.39941 196.843C10.1969 196.843 10.9717 196.979 11.7236 197.253C12.4984 197.526 13.2389 197.925 13.9453 198.449C14.0592 198.563 14.1846 198.677 14.3213 198.791C14.4352 198.677 14.5605 198.563 14.6973 198.449C15.4036 197.925 16.1328 197.526 16.8848 197.253C17.6595 196.979 18.4342 196.843 19.209 196.843C20.0065 196.843 20.7812 196.979 21.5332 197.253C22.3079 197.526 23.0371 197.937 23.7207 198.483C24.4271 199.007 25.0423 199.714 25.5664 200.603C26.1133 201.491 26.3867 202.551 26.3867 203.781V216.12C26.25 217.487 25.498 218.228 24.1309 218.342C23.4928 218.342 22.9346 218.137 22.4561 217.727C22.0003 217.294 21.7725 216.758 21.7725 216.12V204.055C21.7725 203.508 21.6699 203.052 21.4648 202.688C21.2598 202.3 21.0319 202.004 20.7812 201.799C20.5306 201.571 20.2686 201.411 19.9951 201.32C19.7217 201.206 19.4482 201.149 19.1748 201.149C18.9014 201.149 18.6279 201.206 18.3545 201.32C18.1038 201.411 17.8532 201.571 17.6025 201.799C17.3519 202.004 17.124 202.3 16.9189 202.688C16.7139 203.052 16.5999 203.508 16.5771 204.055V216.12C16.4404 217.487 15.6885 218.228 14.3213 218.342C13.6833 218.342 13.125 218.137 12.6465 217.727C12.1908 217.294 11.9629 216.758 11.9629 216.12V204.055C11.9629 203.508 11.8604 203.052 11.6553 202.688C11.4502 202.3 11.2223 202.004 10.9717 201.799C10.721 201.571 10.459 201.411 10.1855 201.32C9.91211 201.206 9.63867 201.149 9.36523 201.149C9.0918 201.149 8.81836 201.206 8.54492 201.32C8.29427 201.411 8.04362 201.571 7.79297 201.799C7.54232 202.004 7.31445 202.3 7.10938 202.688C6.9043 203.052 6.79036 203.508 6.76758 204.055V216.12C6.65365 217.487 5.91309 218.228 4.5459 218.342C3.90788 218.342 3.34961 218.137 2.87109 217.727C2.41536 217.294 2.1875 216.758 2.1875 216.12V203.781C2.23307 202.551 2.5179 201.491 3.04199 200.603C3.56608 199.714 4.18132 199.007 4.8877 198.483C5.59408 197.937 6.32324 197.526 7.0752 197.253C7.84993 196.979 8.62467 196.843 9.39941 196.843ZM41.5967 218.718C40.4118 218.718 39.2383 218.581 38.0762 218.308C36.9368 218.034 35.8431 217.635 34.7949 217.111C33.7467 216.564 32.8239 215.847 32.0264 214.958C31.2288 214.069 30.7959 213.01 30.7275 211.779V210.344V199.44C30.7275 198.802 30.9554 198.278 31.4111 197.868C31.8896 197.435 32.4479 197.219 33.0859 197.219C34.4531 197.333 35.1937 198.073 35.3076 199.44V210.72C35.3532 211.426 35.6152 212.019 36.0938 212.497C36.5951 212.953 37.1419 213.317 37.7344 213.591C38.3496 213.864 38.9762 214.069 39.6143 214.206C40.2751 214.343 40.9359 214.411 41.5967 214.411C42.2575 214.411 42.9069 214.343 43.5449 214.206C44.2057 214.069 44.8324 213.864 45.4248 213.591C46.04 213.317 46.5869 212.953 47.0654 212.497C47.5667 212.019 47.8402 211.426 47.8857 210.72V199.44C47.8857 198.802 48.1136 198.278 48.5693 197.868C49.0479 197.435 49.6061 197.219 50.2441 197.219C51.6113 197.333 52.3633 198.073 52.5 199.44V210.344V211.779C52.4316 213.01 51.9873 214.069 51.167 214.958C50.3695 215.847 49.4466 216.564 48.3984 217.111C47.3503 217.635 46.2451 218.034 45.083 218.308C43.9437 218.581 42.7816 218.718 41.5967 218.718ZM56.3965 200.056C56.3965 199.418 56.613 198.882 57.0459 198.449C57.5016 197.993 58.0485 197.766 58.6865 197.766H78.5791C79.2171 197.766 79.764 197.982 80.2197 198.415C80.6527 198.871 80.8691 199.418 80.8691 200.056C80.8691 200.694 80.6413 201.241 80.1855 201.696C79.7526 202.129 79.2171 202.346 78.5791 202.346H70.957V216.188C70.8203 217.556 70.0684 218.296 68.7012 218.41C68.0632 218.41 67.5049 218.205 67.0264 217.795C66.5706 217.362 66.3428 216.826 66.3428 216.188V202.346H58.6865C58.0485 202.346 57.513 202.118 57.0801 201.662C56.6243 201.229 56.3965 200.694 56.3965 200.056ZM92.1484 212.634C92.1484 211.996 92.3649 211.46 92.7979 211.027C93.2536 210.572 93.8005 210.344 94.4385 210.344H99.668L98.7793 207.814C98.4147 206.88 98.0501 206.003 97.6855 205.183C97.3438 204.34 96.945 203.576 96.4893 202.893C96.0791 202.209 95.612 201.844 95.0879 201.799C94.541 201.844 94.0511 202.209 93.6182 202.893C93.1852 203.576 92.7865 204.34 92.4219 205.183C92.0801 206.003 91.7269 206.88 91.3623 207.814L88.1152 216.701C87.8874 217.18 87.5911 217.578 87.2266 217.897C86.8848 218.194 86.3607 218.342 85.6543 218.342C84.9935 218.342 84.4466 218.114 84.0137 217.658C83.6035 217.202 83.4212 216.656 83.4668 216.018C83.4896 215.721 83.5579 215.448 83.6719 215.197L87.4316 205.49C88.4798 202.938 89.528 200.876 90.5762 199.304C91.6016 197.754 93.1055 196.968 95.0879 196.945C97.0475 196.968 98.54 197.754 99.5654 199.304C100.614 200.83 101.662 202.893 102.71 205.49L106.47 215.197C106.584 215.448 106.652 215.721 106.675 216.018C106.72 216.656 106.527 217.202 106.094 217.658C105.684 218.114 105.148 218.342 104.487 218.342C103.735 218.342 103.177 218.194 102.812 217.897C102.471 217.578 102.186 217.18 101.958 216.701L101.309 214.924H94.4385C93.8005 214.924 93.265 214.696 92.832 214.24C92.3763 213.807 92.1484 213.272 92.1484 212.634ZM132.891 208.908C133.324 209.82 133.54 210.743 133.54 211.677C133.54 212.588 133.312 213.5 132.856 214.411C132.401 215.3 131.66 216.097 130.635 216.804C129.609 217.487 128.299 217.829 126.704 217.829H126.499C126.362 217.852 126.226 217.863 126.089 217.863H112.349C111.733 217.84 111.209 217.624 110.776 217.214C110.366 216.781 110.15 216.257 110.127 215.642V199.987C110.15 199.372 110.366 198.859 110.776 198.449C111.209 198.016 111.733 197.788 112.349 197.766H124.106C124.243 197.766 124.38 197.777 124.517 197.8H124.722C126.317 197.845 127.627 198.21 128.652 198.894C129.678 199.577 130.418 200.363 130.874 201.252C131.33 202.118 131.558 202.995 131.558 203.884C131.558 204.795 131.341 205.684 130.908 206.55C130.885 206.595 130.863 206.63 130.84 206.652C131.774 207.313 132.458 208.065 132.891 208.908ZM126.909 213.283C127.342 213.306 127.695 213.226 127.969 213.044C128.265 212.862 128.481 212.657 128.618 212.429C128.755 212.178 128.823 211.927 128.823 211.677C128.823 211.517 128.755 211.301 128.618 211.027C128.481 210.731 128.265 210.492 127.969 210.31C127.695 210.127 127.342 210.025 126.909 210.002H124.722H114.741V212.36C114.741 212.976 115.06 213.283 115.698 213.283H115.972H126.909ZM126.021 205.114C126.294 204.955 126.499 204.772 126.636 204.567C126.772 204.34 126.841 204.112 126.841 203.884C126.841 203.656 126.772 203.439 126.636 203.234C126.499 203.007 126.283 202.813 125.986 202.653C125.713 202.471 125.36 202.368 124.927 202.346H115.698C115.06 202.346 114.741 202.653 114.741 203.269V205.422H124.927C125.36 205.399 125.724 205.297 126.021 205.114ZM139.351 197.219C139.989 197.219 140.535 197.435 140.991 197.868C141.447 198.278 141.686 198.802 141.709 199.44V207.678C141.686 208.612 141.743 209.478 141.88 210.275C142.039 211.05 142.404 211.745 142.974 212.36C143.543 212.976 144.261 213.306 145.127 213.352H156.064C156.702 213.374 157.227 213.614 157.637 214.069C158.07 214.525 158.286 215.072 158.286 215.71C158.263 216.325 158.035 216.849 157.603 217.282C157.192 217.692 156.68 217.909 156.064 217.932H143.965C142.37 217.84 141.048 217.305 140 216.325C138.975 215.323 138.234 214.104 137.778 212.668C137.345 211.232 137.118 209.706 137.095 208.088V199.44C137.118 198.825 137.345 198.312 137.778 197.902C138.211 197.469 138.735 197.242 139.351 197.219ZM167.891 197.766H169.463H181.084C181.722 197.788 182.246 198.028 182.656 198.483C183.089 198.939 183.306 199.486 183.306 200.124C183.192 201.491 182.451 202.232 181.084 202.346H169.053C168.187 202.391 167.469 202.722 166.899 203.337C166.33 203.952 165.908 204.659 165.635 205.456C165.384 206.231 165.259 207.028 165.259 207.849C165.259 208.669 165.384 209.478 165.635 210.275C165.908 211.05 166.33 211.745 166.899 212.36C167.469 212.976 168.187 213.306 169.053 213.352H181.084C181.722 213.374 182.246 213.614 182.656 214.069C183.089 214.525 183.306 215.072 183.306 215.71C183.283 216.325 183.055 216.849 182.622 217.282C182.212 217.692 181.699 217.909 181.084 217.932H168.54H167.891C166.296 217.84 164.974 217.237 163.926 216.12C162.9 214.981 162.16 213.693 161.704 212.258C161.271 210.822 161.055 209.353 161.055 207.849C161.055 206.345 161.283 204.875 161.738 203.439C162.194 202.004 162.935 200.728 163.96 199.611C164.985 198.472 166.296 197.857 167.891 197.766ZM183.237 207.712C183.237 208.35 183.009 208.885 182.554 209.318C182.121 209.774 181.585 210.002 180.947 210.002H170.625C169.987 210.002 169.44 209.785 168.984 209.353C168.551 208.897 168.335 208.35 168.335 207.712C168.335 207.074 168.551 206.527 168.984 206.071C169.44 205.638 169.987 205.422 170.625 205.422H180.947C181.585 205.422 182.121 205.65 182.554 206.105C183.009 206.538 183.237 207.074 183.237 207.712ZM203.574 200.056C203.574 199.418 203.791 198.882 204.224 198.449C204.679 197.993 205.226 197.766 205.864 197.766H225.757C226.395 197.766 226.942 197.982 227.397 198.415C227.83 198.871 228.047 199.418 228.047 200.056C228.047 200.694 227.819 201.241 227.363 201.696C226.93 202.129 226.395 202.346 225.757 202.346H218.135V216.188C217.998 217.556 217.246 218.296 215.879 218.41C215.241 218.41 214.683 218.205 214.204 217.795C213.748 217.362 213.521 216.826 213.521 216.188V202.346H205.864C205.226 202.346 204.691 202.118 204.258 201.662C203.802 201.229 203.574 200.694 203.574 200.056ZM237.993 197.766H239.565H251.187C251.825 197.788 252.349 198.028 252.759 198.483C253.192 198.939 253.408 199.486 253.408 200.124C253.294 201.491 252.554 202.232 251.187 202.346H239.155C238.289 202.391 237.572 202.722 237.002 203.337C236.432 203.952 236.011 204.659 235.737 205.456C235.487 206.231 235.361 207.028 235.361 207.849C235.361 208.669 235.487 209.478 235.737 210.275C236.011 211.05 236.432 211.745 237.002 212.36C237.572 212.976 238.289 213.306 239.155 213.352H251.187C251.825 213.374 252.349 213.614 252.759 214.069C253.192 214.525 253.408 215.072 253.408 215.71C253.385 216.325 253.158 216.849 252.725 217.282C252.314 217.692 251.802 217.909 251.187 217.932H238.643H237.993C236.398 217.84 235.076 217.237 234.028 216.12C233.003 214.981 232.262 213.693 231.807 212.258C231.374 210.822 231.157 209.353 231.157 207.849C231.157 206.345 231.385 204.875 231.841 203.439C232.297 202.004 233.037 200.728 234.062 199.611C235.088 198.472 236.398 197.857 237.993 197.766ZM253.34 207.712C253.34 208.35 253.112 208.885 252.656 209.318C252.223 209.774 251.688 210.002 251.05 210.002H240.728C240.09 210.002 239.543 209.785 239.087 209.353C238.654 208.897 238.438 208.35 238.438 207.712C238.438 207.074 238.654 206.527 239.087 206.071C239.543 205.638 240.09 205.422 240.728 205.422H251.05C251.688 205.422 252.223 205.65 252.656 206.105C253.112 206.538 253.34 207.074 253.34 207.712ZM264.619 202.346C263.753 202.391 263.024 202.722 262.432 203.337C261.862 203.952 261.452 204.659 261.201 205.456C260.951 206.231 260.825 207.028 260.825 207.849C260.825 208.669 260.939 209.478 261.167 210.275C261.418 211.073 261.839 211.779 262.432 212.395C263.024 212.987 263.753 213.306 264.619 213.352H275.898C277.334 213.488 278.12 214.274 278.257 215.71C278.234 216.348 277.995 216.883 277.539 217.316C277.083 217.727 276.536 217.932 275.898 217.932H264.995H263.423C261.828 217.84 260.518 217.237 259.492 216.12C258.467 214.981 257.726 213.693 257.271 212.258C256.838 210.822 256.621 209.353 256.621 207.849C256.621 206.732 256.746 205.627 256.997 204.533C257.248 203.439 257.635 202.403 258.159 201.423C258.706 200.42 259.424 199.566 260.312 198.859C261.224 198.153 262.261 197.788 263.423 197.766H264.072H275.898C277.334 197.902 278.12 198.688 278.257 200.124C278.257 200.762 278.018 201.298 277.539 201.73C277.083 202.141 276.536 202.346 275.898 202.346H264.619ZM283.76 197.219C284.375 197.242 284.899 197.469 285.332 197.902C285.765 198.312 285.993 198.825 286.016 199.44V205.148H297.124V199.44C297.147 198.802 297.386 198.278 297.842 197.868C298.298 197.435 298.844 197.219 299.482 197.219C300.098 197.242 300.622 197.469 301.055 197.902C301.488 198.312 301.715 198.825 301.738 199.44V216.188C301.602 217.556 300.85 218.296 299.482 218.41C298.844 218.41 298.286 218.205 297.808 217.795C297.352 217.362 297.124 216.826 297.124 216.188V209.729H286.016V216.188C285.879 217.556 285.127 218.296 283.76 218.41C283.122 218.41 282.563 218.205 282.085 217.795C281.629 217.362 281.401 216.826 281.401 216.188V199.44C281.424 198.802 281.663 198.278 282.119 197.868C282.575 197.435 283.122 197.219 283.76 197.219Z" fill="#0C78A1"/>
<path d="M285.68 116.283V111.503H246.68L252.59 105.691C253.644 104.658 254.474 103.438 255.033 102.098C255.593 100.758 255.87 99.3266 255.849 97.8844C255.829 96.4422 255.511 95.0181 254.914 93.6935C254.317 92.3689 253.453 91.17 252.37 90.1653L232.73 71.8962C231.65 70.8889 230.373 70.0952 228.972 69.5605C227.571 69.0258 226.073 68.7606 224.564 68.7802C223.056 68.7997 221.566 69.1036 220.181 69.6743C218.795 70.2451 217.541 71.0716 216.49 72.1065L210.55 77.9476C208.703 79.755 206.318 80.9736 203.72 81.437V74.5443L216.03 62.7664V40.1952L221.72 37.05V27.1745L212.77 22.232L203.77 27.1745V37.05L210.99 41.0365V60.7874L198.68 72.5654V81.3605C197.746 81.1674 196.837 80.8757 195.97 80.4906C192.79 79.0662 189.5 77.7851 186.15 76.6666V52.3842L198.46 40.6063V18.6183L205.15 14.9281V5.00484L196.15 0.0623169L187.2 5.00484V14.8899L193.41 18.3219V38.6178L181.18 50.3957V74.42C179.565 73.3092 178.245 71.8519 177.327 70.165C176.408 68.4781 175.916 66.6087 175.89 64.707L175.77 56.5715C175.751 55.1253 175.432 53.6971 174.833 52.3689C174.235 51.0407 173.367 49.8388 172.281 48.8322C171.194 47.8256 169.911 47.0343 168.503 46.5036C167.096 45.9729 165.593 45.7134 164.08 45.74L149.6 45.9216V105.194H149.41V149.313L142.96 152.879V162.754L151.96 167.697L160.96 162.754V152.869L154.5 149.303V110.203C155.15 110.203 155.79 110.203 156.45 110.28C159.212 110.45 161.958 110.801 164.67 111.331V127.315L158.22 130.881V140.766L167.22 145.709L176.08 140.766V130.881L169.63 127.315V112.517C173.631 113.641 177.503 115.146 181.19 117.01V163.672L173.95 167.668V177.553L182.9 182.496L191.9 177.553V167.668L186.23 164.542V119.84C196.861 126.418 205.137 135.942 209.953 147.139C214.769 158.336 215.895 170.671 213.18 182.496H281.9C281.945 182.07 281.965 181.643 281.96 181.215L281.59 155.02C281.567 153.575 281.245 152.149 280.644 150.823C280.043 149.497 279.174 148.297 278.087 147.293C277 146.288 275.717 145.499 274.31 144.97C272.904 144.44 271.401 144.181 269.89 144.208L261.37 144.313C258.726 144.354 256.134 143.603 253.957 142.167C251.781 140.731 250.128 138.68 249.23 136.302C248.9 135.422 248.55 134.552 248.23 133.682H263.9V128.902H246.08C245.54 127.755 244.98 126.627 244.39 125.518C242.889 122.66 242.63 119.351 243.67 116.312L285.68 116.283ZM207.8 34.8416V29.3828L212.8 26.6487L217.75 29.3828V34.8416L212.8 37.5758L207.8 34.8416ZM191.28 12.6815V7.21319L196.23 4.47903L201.23 7.21319V12.6815L196.23 15.4157L191.28 12.6815ZM156.91 155.126V160.594L151.91 163.328L146.91 160.594V155.126L151.91 152.391L156.91 155.126ZM172.07 133.138V138.606L167.08 141.34L162.08 138.606V133.138L167.08 130.403L172.07 133.138ZM187.85 169.924V175.393L182.85 178.127L177.9 175.393V169.924L182.85 167.19L187.85 169.924Z" fill="url(#paint0_linear_1_5)"/>
<path d="M298.56 122.449H288.22L283.06 113.845L288.22 105.289H298.56L303.73 113.845L298.56 122.449Z" fill="#00A6E4"/>
<path d="M276.75 139.82H266.41L261.24 131.216L266.41 122.612H276.75L281.92 131.216L276.75 139.82Z" fill="#00A6E4"/>
<path d="M139.8 4.84232C92.6973 5.99334 47.7143 23.8012 13.55 54.822L47.08 86.848C72.3446 64.3237 105.257 51.2628 139.78 50.0611L139.8 4.84232Z" fill="url(#paint1_linear_1_5)"/>
<path d="M139.8 59.9462C108.004 61.1315 77.7021 73.1604 54.38 93.8555L86.74 124.792C101.444 112.261 120.137 104.835 139.8 103.712V59.9462Z" fill="url(#paint2_linear_1_5)"/>
<path d="M139.8 136.617V113.549C122.868 114.636 106.781 121.019 94.02 131.713L112.89 149.753C120.11 142.671 129.566 138.056 139.8 136.617Z" fill="url(#paint3_linear_1_5)"/>
<path d="M41.4 92.1729C17.1038 116.608 3.15687 148.793 2.26001 182.496H37.7C38.6238 157.793 48.8474 134.239 66.49 116.169L41.4 92.1729Z" fill="url(#paint4_linear_1_5)"/>
<path d="M71.94 121.379C55.7415 138.067 46.3269 159.747 45.4 182.496H79.65C80.535 168.427 86.351 155.054 96.16 144.533L71.94 121.379Z" fill="url(#paint5_linear_1_5)"/>
<path d="M107.4 155.278L101.61 149.743C93.2264 158.868 88.2186 170.378 87.36 182.496H97.36C98.7897 172.878 102.202 163.626 107.4 155.278Z" fill="url(#paint6_linear_1_5)"/>
<defs>
<linearGradient id="paint0_linear_1_5" x1="143" y1="91.2743" x2="285.68" y2="91.2743" gradientUnits="userSpaceOnUse">
<stop offset="0.03"/>
<stop offset="0.22" stop-color="#21262A"/>
<stop offset="0.4" stop-color="#0C78A1"/>
<stop offset="0.49" stop-color="#00A6E4"/>
<stop offset="1" stop-opacity="0"/>
</linearGradient>
<linearGradient id="paint1_linear_1_5" x1="13.55" y1="45.8643" x2="139.8" y2="45.8643" gradientUnits="userSpaceOnUse">
<stop offset="0.03"/>
<stop offset="0.22" stop-color="#21262A"/>
<stop offset="0.4" stop-color="#0C78A1"/>
<stop offset="0.49" stop-color="#00A6E4"/>
<stop offset="1" stop-opacity="0"/>
</linearGradient>
<linearGradient id="paint2_linear_1_5" x1="54.38" y1="92.3641" x2="139.8" y2="92.3641" gradientUnits="userSpaceOnUse">
<stop offset="0.03"/>
<stop offset="0.22" stop-color="#21262A"/>
<stop offset="0.4" stop-color="#0C78A1"/>
<stop offset="0.49" stop-color="#00A6E4"/>
<stop offset="1" stop-opacity="0"/>
</linearGradient>
<linearGradient id="paint3_linear_1_5" x1="94.02" y1="131.675" x2="139.8" y2="131.675" gradientUnits="userSpaceOnUse">
<stop offset="0.03"/>
<stop offset="0.22" stop-color="#21262A"/>
<stop offset="0.4" stop-color="#0C78A1"/>
<stop offset="0.49" stop-color="#00A6E4"/>
<stop offset="1" stop-opacity="0"/>
</linearGradient>
<linearGradient id="paint4_linear_1_5" x1="2.26001" y1="137.334" x2="66.49" y2="137.334" gradientUnits="userSpaceOnUse">
<stop offset="0.03"/>
<stop offset="0.22" stop-color="#21262A"/>
<stop offset="0.4" stop-color="#0C78A1"/>
<stop offset="0.49" stop-color="#00A6E4"/>
<stop offset="1" stop-opacity="0"/>
</linearGradient>
<linearGradient id="paint5_linear_1_5" x1="45.4" y1="151.932" x2="96.16" y2="151.932" gradientUnits="userSpaceOnUse">
<stop offset="0.03"/>
<stop offset="0.22" stop-color="#21262A"/>
<stop offset="0.4" stop-color="#0C78A1"/>
<stop offset="0.49" stop-color="#00A6E4"/>
<stop offset="1" stop-opacity="0"/>
</linearGradient>
<linearGradient id="paint6_linear_1_5" x1="87.36" y1="166.12" x2="107.4" y2="166.12" gradientUnits="userSpaceOnUse">
<stop offset="0.03"/>
<stop offset="0.22" stop-color="#21262A"/>
<stop offset="0.4" stop-color="#0C78A1"/>
<stop offset="0.49" stop-color="#00A6E4"/>
<stop offset="1" stop-opacity="0"/>
</linearGradient>
</defs>
</svg>
